/* XPM */
static char * ts_active_xpm[] = {
"19 19 8 1",
" 	c None",
".	c #000000",
"+	c #10DC7F",
"@	c #DD0011",
"#	c #FF99A0",
"$	c #663338",
"%	c #BB000F",
"&	c #000322",
"         .         ",
"        .+.        ",
"       .+++.       ",
"      .+++++.      ",
"     .+++@+++.     ",
"    .+++#@$+++.    ",
"   .+++##%$$+++.   ",
"  .+++##%%%$$+++.  ",
" .+++##%%%%%$$+++. ",
".+++@@%%%%%%%&&+++.",
" .+++$$%%%%%&&+++. ",
"  .+++$$%%%&&+++.  ",
"   .+++$$%&&+++.   ",
"    .+++$&&+++.    ",
"     .+++&+++.     ",
"      .+++++.      ",
"       .+++.       ",
"        .+.        ",
"         .         "};
